P2
67 67
255
 147 147 147 147 147 147 147 147 147 147 147 147
 147 147 147 147 147 147 147 147 147 147 147 147
 147 147 147 147 147 147 147 147 147 147 147 147
 147 147 147 147 147 147 147 147 147 147 147 147
 147 147 147 147 147 147 147 147 147 147 147 147
 147 147 147 147 147 147 147 147 147 147 147 147
 147 147 147 147 147 147 147 147 147 147 147 147
 147 147 147 147 147 147 147 147 147 147 147 147
 147 147 147 147 147 147 147 147 147 147 147 147
 147 147 147 147 147 147 147 147 147 147 147 147
 147 147 147 147 147 147 147 147 147 147 147 147
 147 147 147 147 147 147 147 147 147 147 147 147
 147 147 147 147 147 147 147 147 147 147 147 147
 147 147 147 147 147 147 147 147 147 147 147 147
 147 147 147 147 147 147 147 147 147 147 147 147
 147 147 147 147 147 147 147 147 147 147 147 147
 147 147 147 147 147 147 147 147 147 147 147 147
 147 147 147 147 147 147 147 147 147 147 147 147
 147 147 147 147 147 147 147 147 147 147 147 147
 147 147 147 147 147 147 147 147 147 147 147 147
 147 147 147 147 147 147 147 147 147 147 147 147
 147 147 147 147 147 147 147 147 147 147 147 147
 147 147 147 147 147 147 147 147 147 147 147 147
 147 147 147 147 147 147 147 147 147 147 147 147
 147 147 147 147 147 147 147 147 147 147 147 147
 147 147 147 147 147 147 147 147 147 147 147 147
 147 147 147 147 147 147 147 147 147 147 147 147
 147 147 147 147 147 147 147 147 147 147 147 147
 147 147 147 147 147 147 147 147 147 147 147 147
 147 147 147 147 147 147 147 147 147 147 147 147
 147 147 147 147 147 147 147 147 147 147 147 147
 147 147 147 147 147 147 147 147 147 147 147 147
 147 147 147 147 147 147 147 147 147 147 147 147
 147 147 147 147 147 147 147 147 147 147 147 147
 147 147 147 147 147 147 147 147 147 147 147 147
 147 147 147 147 147 147 147 147 147 147 147 147
 147 147 147 147 147 147 147 147 147 147 147 147
 147 147 147 147 147 147 147 147 147 147 147 147
 147 147 147 147 147 147 147 147 147 147 147 147
 147 147 147 147 147 147 147 147 147 147 147 147
 147 147 147 147 147 147 147 147 147 147 147 147
 147 147 147 147 147 147 147 147 147 147 147 147
 147 147 147 147 147 147 147 147 147 147 147 147
 147 147 147 147 147 147 147 147 147 147 147 147
 147 147 147 147 147 147 147 147 147 147 147 147
 147 147 147 147 147 147 147 147 147 147 147 147
 147 147 147 147 147 147 147 147 147 147 147 147
 147 147 147 147 147 147 147 147 147 147 147 147
 147 147 147 147 147 147 147 147 147 147 147 147
 147 147 147 147 147 147 147 147 147 147 147 147
 147 147 147 147 147 147 147 147 147 147 147 147
 147 147 147 147 147 147 147 147 147 147 147 147
 147 147 147 147 147 147 147 147 147 147 147 147
 147 147 147 147 147 147 147 147 147 147 147 147
 147 147 147 147 147 147 147 147 147 147 147 147
 147 147 147 147 147 147 147 147 147 147 147 147
 147 147 147 147 147 147 147 147 147 147 147 147
 147 147 147 147 147 147 147 147 147 147 147 147
 147 147 147 147 147 147 147 147 147 147 147 147
 147 147 147 147 147 147 147 147 147 147 147 147
 147 147 147 147 147 147 147 147 147 147 147 147
 147 147 147 147 147 147 147 147 147 147 147 147
 147 147 147 147 147 147 147 147 147 147 147 147
 147 147 147 147 147 147 147 147 147 147 147 147
 147 147 147 147 147 147 147 147 147 147 147 147
 147 147 147 147 147 147 147 147 147 147 147 147
 147 147 147 147 147 147 147 147 147 147 147 147
 147 147 147 147 147 147 147 147 147 147 147 147
 147 147 147 147 147 147 147 147 147 147 147 147
 147 147 147 147 147 147 147 147 147 147 147 147
 147 147 147 147 147 147 147 147 147 147 147 147
 147 147 147 147 147 147 147 147 147 147 147 147
 147 147 147 147 147 147 147 147 147 147 147 147
 147 147 147 147 147 147 147 147 147 147 147 147
 147 147 147 147 147 147 147 147 147 147 147 147
 147 147 147 147 147 147 147 147 147 147 147 147
 147 147 147 147 147 147 147 147 147 147 147 147
 147 147 147 147 147 147 147 147 147 147 147 147
 147 147 147 147 147 147 147 147 147 147 147 147
 147 147 147 147 147 147 147 147 147 147 147 147
 147 147 147 147 147 147 147 147 147 147 147 147
 147 147 147 147 147 147 147 147 147 147 147 147
 147 147 147 147 147 147 147 147 147 147 147 147
 147 147 147 147 147 147 147 147 147 147 147 147
 147 147 147 147 147 147 147 147 147 147 147 147
 147 147 147 147 147 147 147 147 147 147 147 147
 147 147 147 147 147 147 147 147 147 147 147 147
 147 147 147 147 147 147 147 147 147 147 147 147
 147 147 147 147 147 147 147 147 147 147 147 147
 147 147 147 147 147 147 147 147 147 147 147 147
 147 147 147 147 147 147 147 147 147 147 147 147
 147 147 147 147 147 147 147 147 147 147 147 147
 147 147 147 147 147 147 147 147 147 147 147 147
 147 147 147 147 147 147 147 147 147 147 147 147
 147 147 147 147 147 147 147 147 147 147 147 147
 147 147 147 147 147 147 147 147 147 147 147 147
 147 147 147 147 147 147 147 147 147 147 147 147
 147 147 147 147 147 147 147 147 147 147 147 147
 147 147 147 147 147 147 147 147 147 147 147 147
 147 147 147 147 147 147 147 147 147 147 147 147
 147 147 147 147 147 147 147 147 147 147 147 147
 147 147 147 147 147 147 147 147 147 147 147 147
 147 147 147 147 147 147 147 147 147 147 147 147
 147 147 147 147 147 147 147 147 147 147 147 147
 147 147 147 147 147 147 147 147 147 147 147 147
 147 147 147 147 147 147 147 147 147 147 147 147
 147 147 147 147 147 147 147 147 147 147 147 147
 147 147 147 147 147 147 147 147 147 147 147 147
 147 147 147 147 147 147 147 147 147 147 147 147
 147 147 147 147 147 147 147 147 147 147 147 147
 147 147 147 147 147 147 147 147 147 147 147 147
 147 147 147 147 147 147 147 147 147 147 147 147
 147 147 147 147 147 147 147 147 147 147 147 147
 147 147 147 147 147 147 147 147 147 147 147 147
 147 147 147 147 147 147 147 147 147 147 147 147
 147 147 147 147 147 147 147 147 147 147 147 147
 147 147 147 147 147 147 147 147 147 147 147 147
 147 147 147 147 147 147 147 147 147 147 147 147
 147 147 147 147 147 147 147 147 147 147 147 147
 147 147 147 147 147 147 147 147 147 148 150 150
 149 148 147 147 147 147 147 147 147 147 147 147
 147 147 147 147 147 147 147 147 147 147 147 147
 147 147 147 147 147 147 147 147 147 147 147 147
 147 147 147 147 147 147 147 147 147 147 147 147
 147 147 147 147 147 147 147 147 147 147 147 147
 147 147 147 150 133 114 111 122 144 149 147 149
 149 147 147 147 147 147 147 147 147 147 147 147
 147 147 147 147 147 147 147 147 147 147 147 147
 147 147 147 147 147 147 147 147 147 147 147 147
 147 147 147 147 147 147 147 147 147 147 147 147
 147 147 147 147 147 147 147 149 150 150 102 107
 149 155 133 88 130 146 127 130 146 149 147 147
 147 147 147 147 147 147 147 147 147 147 147 147
 147 147 147 147 147 147 147 147 147 147 147 147
 147 147 147 147 147 147 147 147 147 147 147 147
 147 147 147 147 147 147 147 147 147 147 147 147
 148 147 120 107 84 106 236 241 241 241 201 65
 89 127 120 91 126 151 147 147 147 147 147 147
 147 147 147 147 147 147 147 147 147 147 147 147
 147 147 147 147 147 147 147 147 147 147 147 147
 147 147 147 147 147 147 147 147 147 147 147 147
 147 147 147 147 147 147 148 144 92 129 165 156
 221 234 232 232 232 237 182 210 237 237 207 95
 121 150 147 147 147 147 147 147 147 147 147 147
 147 147 147 147 147 147 147 147 147 147 147 147
 147 147 147 147 147 147 147 147 147 147 147 147
 147 147 147 147 147 147 147 147 147 147 147 147
 147 149 93 160 241 240 240 234 232 232 232 232
 232 237 234 232 232 237 213 88 140 147 147 147
 147 147 147 147 147 147 147 147 147 147 147 147
 147 147 147 147 147 147 147 147 147 147 147 147
 147 147 147 147 147 147 147 147 147 147 147 147
 147 147 147 147 147 147 147 148 130 107 238 232
 232 232 232 232 232 232 232 232 232 232 232 232
 232 240 158 107 151 147 147 147 147 147 147 147
 147 147 147 147 147 147 147 147 147 147 147 147
 147 147 147 147 147 147 147 147 147 147 147 147
 147 147 147 147 147 147 147 147 147 147 147 147
 147 147 151 103 173 238 232 232 232 232 232 232
 232 232 232 232 232 232 232 232 235 206 92 151
 147 147 147 147 147 147 147 147 147 147 147 147
 147 147 147 147 147 147 147 147 147 147 147 147
 147 147 147 147 147 147 147 147 147 147 147 147
 147 147 147 147 147 147 147 147 147 151 93 204
 235 232 232 232 232 232 232 232 232 232 232 232
 232 232 232 235 207 93 150 147 147 147 147 147
 147 147 147 147 147 147 147 147 147 147 147 147
 147 147 147 147 147 147 147 147 147 147 147 147
 147 147 147 147 147 147 147 147 147 147 147 147
 147 147 147 147 150 93 209 235 232 232 232 232
 232 232 232 232 232 232 232 232 232 232 238 153
 109 151 147 147 147 147 147 147 147 147 147 147
 147 147 147 147 147 147 147 147 147 147 147 147
 147 147 147 147 147 147 147 147 147 147 147 147
 147 147 147 147 147 147 147 147 147 147 147 152
 96 195 236 232 232 232 232 232 232 232 232 232
 232 232 232 232 234 217 70 133 149 147 147 147
 147 147 147 147 147 147 147 147 147 147 147 147
 147 147 147 147 147 147 147 147 147 147 147 147
 147 147 147 147 147 147 147 147 147 147 147 147
 147 147 147 147 147 147 150 116 128 240 232 232
 232 232 232 232 232 232 232 232 232 232 232 232
 234 174 91 146 147 147 147 147 147 147 147 147
 147 147 147 147 147 147 147 147 147 147 147 147
 147 147 147 147 147 147 147 147 147 147 147 147
 147 147 147 147 147 147 147 147 147 147 147 147
 147 147 149 90 140 236 232 232 232 232 232 232
 232 232 232 232 232 232 232 232 243 117 127 148
 147 147 147 147 147 147 147 147 147 147 147 147
 147 147 147 147 147 147 147 147 147 147 147 147
 147 147 147 147 147 147 147 147 147 147 147 147
 147 147 147 147 147 147 147 147 147 150 99 147
 236 232 232 232 232 232 232 232 232 232 232 232
 232 232 232 240 138 119 149 147 147 147 147 147
 147 147 147 147 147 147 147 147 147 147 147 147
 147 147 147 147 147 147 147 147 147 147 147 147
 147 147 147 147 147 147 147 147 147 147 147 147
 147 147 147 148 130 108 237 232 232 232 232 232
 232 232 232 232 232 232 232 232 232 232 240 121
 126 149 147 147 147 147 147 147 147 147 147 147
 147 147 147 147 147 147 147 147 147 147 147 147
 147 147 147 147 147 147 147 147 147 147 147 147
 147 147 147 147 147 147 147 147 147 147 151 107
 166 238 232 232 232 232 232 232 232 232 232 232
 232 232 232 232 233 224 97 142 147 147 147 147
 147 147 147 147 147 147 147 147 147 147 147 147
 147 147 147 147 147 147 147 147 147 147 147 147
 147 147 147 147 147 147 147 147 147 147 147 147
 147 147 147 147 147 151 105 178 237 232 232 232
 232 232 232 232 232 232 232 232 232 232 232 240
 164 101 151 147 147 147 147 147 147 147 147 147
 147 147 147 147 147 147 147 147 147 147 147 147
 147 147 147 147 147 147 147 147 147 147 147 147
 147 147 147 147 147 147 147 147 147 147 147 147
 149 120 129 242 232 232 232 232 232 233 232 232
 232 232 232 232 232 238 212 87 140 148 147 147
 147 147 147 147 147 147 147 147 147 147 147 147
 147 147 147 147 147 147 147 147 147 147 147 147
 147 147 147 147 147 147 147 147 147 147 147 147
 147 147 147 147 147 147 147 147 146 90 183 241
 234 232 235 236 230 232 232 232 232 233 232 230
 203 97 123 150 147 147 147 147 147 147 147 147
 147 147 147 147 147 147 147 147 147 147 147 147
 147 147 147 147 147 147 147 147 147 147 147 147
 147 147 147 147 147 147 147 147 147 147 147 147
 147 147 147 149 139 81 147 213 229 210 118 141
 243 233 232 235 243 123 81 92 127 150 147 147
 147 147 147 147 147 147 147 147 147 147 147 147
 147 147 147 147 147 147 147 147 147 147 147 147
 147 147 147 147 147 147 147 147 147 147 147 147
 147 147 147 147 147 147 147 147 147 147 147 149
 145 108 92 92 92 112 83 162 223 227 206 137
 96 144 149 149 147 147 147 147 147 147 147 147
 147 147 147 147 147 147 147 147 147 147 147 147
 147 147 147 147 147 147 147 147 147 147 147 147
 147 147 147 147 147 147 147 147 147 147 147 147
 147 147 147 147 147 147 147 148 150 149 147 149
 151 143 100 90 90 93 111 147 148 147 147 147
 147 147 147 147 147 147 147 147 147 147 147 147
 147 147 147 147 147 147 147 147 147 147 147 147
 147 147 147 147 147 147 147 147 147 147 147 147
 147 147 147 147 147 147 147 147 147 147 147 147
 147 147 147 147 147 147 147 147 148 150 149 147
 150 150 147 147 147 147 147 147 147 147 147 147
 147 147 147 147 147 147 147 147 147 147 147 147
 147 147 147 147 147 147 147 147 147 147 147 147
 147 147 147 147 147 147 147 147 147 147 147 147
 147 147 147 147 147 147 147 147 147 147 147 147
 147 147 147 147 147 147 147 147 147 147 147 147
 147 147 147 147 147 147 147 147 147 147 147 147
 147 147 147 147 147 147 147 147 147 147 147 147
 147 147 147 147 147 147 147 147 147 147 147 147
 147 147 147 147 147 147 147 147 147 147 147 147
 147 147 147 147 147 147 147 147 147 147 147 147
 147 147 147 147 147 147 147 147 147 147 147 147
 147 147 147 147 147 147 147 147 147 147 147 147
 147 147 147 147 147 147 147 147 147 147 147 147
 147 147 147 147 147 147 147 147 147 147 147 147
 147 147 147 147 147 147 147 147 147 147 147 147
 147 147 147 147 147 147 147 147 147 147 147 147
 147 147 147 147 147 147 147 147 147 147 147 147
 147 147 147 147 147 147 147 147 147 147 147 147
 147 147 147 147 147 147 147 147 147 147 147 147
 147 147 147 147 147 147 147 147 147 147 147 147
 147 147 147 147 147 147 147 147 147 147 147 147
 147 147 147 147 147 147 147 147 147 147 147 147
 147 147 147 147 147 147 147 147 147 147 147 147
 147 147 147 147 147 147 147 147 147 147 147 147
 147 147 147 147 147 147 147 147 147 147 147 147
 147 147 147 147 147 147 147 147 147 147 147 147
 147 147 147 147 147 147 147 147 147 147 147 147
 147 147 147 147 147 147 147 147 147 147 147 147
 147 147 147 147 147 147 147 147 147 147 147 147
 147 147 147 147 147 147 147 147 147 147 147 147
 147 147 147 147 147 147 147 147 147 147 147 147
 147 147 147 147 147 147 147 147 147 147 147 147
 147 147 147 147 147 147 147 147 147 147 147 147
 147 147 147 147 147 147 147 147 147 147 147 147
 147 147 147 147 147 147 147 147 147 147 147 147
 147 147 147 147 147 147 147 147 147 147 147 147
 147 147 147 147 147 147 147 147 147 147 147 147
 147 147 147 147 147 147 147 147 147 147 147 147
 147 147 147 147 147 147 147 147 147 147 147 147
 147 147 147 147 147 147 147 147 147 147 147 147
 147 147 147 147 147 147 147 147 147 147 147 147
 147 147 147 147 147 147 147 147 147 147 147 147
 147 147 147 147 147 147 147 147 147 147 147 147
 147 147 147 147 147 147 147 147 147 147 147 147
 147 147 147 147 147 147 147 147 147 147 147 147
 147 147 147 147 147 147 147 147 147 147 147 147
 147 147 147 147 147 147 147 147 147 147 147 147
 147 147 147 147 147 147 147 147 147 147 147 147
 147 147 147 147 147 147 147 147 147 147 147 147
 147 147 147 147 147 147 147 147 147 147 147 147
 147 147 147 147 147 147 147 147 147 147 147 147
 147 147 147 147 147 147 147 147 147 147 147 147
 147 147 147 147 147 147 147 147 147 147 147 147
 147 147 147 147 147 147 147 147 147 147 147 147
 147 147 147 147 147 147 147 147 147 147 147 147
 147 147 147 147 147 147 147 147 147 147 147 147
 147 147 147 147 147 147 147 147 147 147 147 147
 147 147 147 147 147 147 147 147 147 147 147 147
 147 147 147 147 147 147 147 147 147 147 147 147
 147 147 147 147 147 147 147 147 147 147 147 147
 147 147 147 147 147 147 147 147 147 147 147 147
 147 147 147 147 147 147 147 147 147 147 147 147
 147 147 147 147 147 147 147 147 147 147 147 147
 147 147 147 147 147 147 147 147 147 147 147 147
 147 147 147 147 147 147 147 147 147 147 147 147
 147 147 147 147 147 147 147 147 147 147 147 147
 147 147 147 147 147 147 147 147 147 147 147 147
 147 147 147 147 147 147 147 147 147 147 147 147
 147 147 147 147 147 147 147 147 147 147 147 147
 147 147 147 147 147 147 147 147 147 147 147 147
 147 147 147 147 147 147 147 147 147 147 147 147
 147 147 147 147 147 147 147 147 147 147 147 147
 147 147 147 147 147 147 147 147 147 147 147 147
 147 147 147 147 147 147 147 147 147 147 147 147
 147 147 147 147 147 147 147 147 147 147 147 147
 147 147 147 147 147 147 147 147 147 147 147 147
 147 147 147 147 147 147 147 147 147 147 147 147
 147 147 147 147 147 147 147 147 147 147 147 147
 147 147 147 147 147 147 147 147 147 147 147 147
 147 147 147 147 147 147 147 147 147 147 147 147
 147 147 147 147 147 147 147 147 147 147 147 147
 147 147 147 147 147 147 147 147 147 147 147 147
 147 147 147 147 147 147 147 147 147 147 147 147
 147 147 147 147 147 147 147 147 147 147 147 147
 147 147 147 147 147 147 147 147 147 147 147 147
 147 147 147 147 147 147 147 147 147 147 147 147
 147 147 147 147 147 147 147 147 147 147 147 147
 147 147 147 147 147 147 147 147 147 147 147 147
 147 147 147 147 147 147 147 147 147 147 147 147
 147 147 147 147 147 147 147 147 147 147 147 147
 147 147 147 147 147 147 147 147 147 147 147 147
 147 147 147 147 147 147 147 147 147 147 147 147
 147 147 147 147 147 147 147 147 147 147 147 147
 147 147 147 147 147 147 147 147 147 147 147 147
 147 147 147 147 147 147 147 147 147 147 147 147
 147 147 147 147 147 147 147 147 147 147 147 147
 147 147 147 147 147 147 147 147 147 147 147 147
 147 147 147 147 147 147 147 147 147 147 147 147
 147 147 147 147 147 147 147 147 147 147 147 147
 147 147 147 147 147 147 147 147 147 147 147 147
 147 147 147 147 147 147 147 147 147 147 147 147
 147 147 147 147 147 147 147 147 147 147 147 147
 147 147 147 147 147 147 147 147 147 147 147 147
 147 147 147 147 147 147 147 147 147 147 147 147
 147 147 147 147 147 147 147 147 147 147 147 147
 147 147 147 147 147 147 147 147 147 147 147 147
 147 147 147 147 147 147 147 147 147 147 147 147
 147 147 147 147 147 147 147 147 147 147 147 147
 147 147 147 147 147 147 147 147 147 147 147 147
 147 147 147 147 147 147 147 147 147 147 147 147
 147 147 147 147 147 147 147 147 147 147 147 147
 147 147 147 147 147 147 147 147 147 147 147 147
 147 147 147 147 147 147 147 147 147 147 147 147
 147 147 147 147 147 147 147 147 147 147 147 147
 147 147 147 147 147 147 147 147 147 147 147 147
 147 147 147 147 147 147 147 147 147 147 147 147
 147 147 147 147 147 147 147 147 147 147 147 147
 147 147 147 147 147 147 147 147 147 147 147 147
 147 147 147 147 147 147 147 147 147 147 147 147
 147 147 147 147 147 147 147 147 147 147 147 147
 147 147 147 147 147 147 147 147 147 147 147 147
 147 147 147 147 147 147 147 147 147 147 147 147
 147 147 147 147 147 147 147 147 147 147 147 147
 147 147 147 147 147 147 147 147 147 147 147 147
 147 147 147 147 147 147 147 147 147 147 147 147
 147 147 147 147 147 147 147 147 147 147 147 147
 147 147 147 147 147 147 147 147 147 147 147 147
 147 147 147 147 147 147 147 147 147 147 147 147
 147 147 147 147 147 147 147 147 147 147 147 147
 147 147 147 147 147 147 147 147 147 147 147 147
 147
