P2
  59  64
 255
  0   0   0   0   0   0   0   0   0   0   0   0   0   0   0   0   0   0   0   0   0   0   0   0   0  28  63  21   5   8   6   6  32  67   0   0   0   0   0   0   0   0   0   0   0   0   0   0   0   0   0   0   0   0   0   0   0   0   0 
  0   0   0   0   0   0   0   0   0   0   0   0   0   0   0   0   0   0   0   0   0   0   0   0  74  28  10  21  65  49  50  31  13  15 176   0   0   0   0   0   0   0   0   0   0   0   0   0   0   0   0   0   0   0   0   0   0   0   0 
  0   0   0   0   0   0   0   0   0   0   0   0   0   0   0   0   0   0   0   0   0   0   0   0  93  19  12  83 168 159 164 130  18  23  77   0   0   0   0   0   0   0   0   0   0   0   0   0   0   0   0   0   0   0   0   0   0   0   0 
  0   0   0   0   0   0   0   0   0   0   0   0   0   0   0   0   0   0   0   0   0   0   0   0  46  19  24 145 161 157 157 152  40  12  13   0   0   0   0   0   0   0   0   0   0   0   0   0   0   0   0   0   0   0   0   0   0   0   0 
  0   0   0   0   0   0   0   0   0   0   0   0   0   0   0   0   0   0   0   0   0   0   0   0  46  11  70 163 159 157 155 155  82   8  30   0   0   0   0   0   0   0   0   0   0   0   0   0   0   0   0   0   0   0   0   0   0   0   0 
  0   0   0   0   0   0   0   0   0   0   0   0   0   0   0   0   0   0   0   0   0   0   0  39  27  16 124 164 157 157 155 157 116   9  20   0   0   0   0   0   0   0   0   0   0   0   0   0   0   0   0   0   0   0   0   0   0   0   0 
  0   0   0   0   0   0   0   0   0   0   0   0   0   0   0   0   0   0   0   0   0   0   0  40   9  46 159 161 157 157 155 156 139  29  13  49   0   0   0   0   0   0   0   0   0   0   0   0   0   0   0   0   0   0   0   0   0   0   0 
  0   0   0   0   0   0   0   0   0   0   0   0   0   0   0   0   0   0   0   0   0   0  50  28  11  88 167 160 157 157 155 155 149  46   9  48   0   0   0   0   0   0   0   0   0   0   0   0   0   0   0   0   0   0   0   0   0   0   0 
  0   0   0   0   4  22  61   0   0   0   0   0   0   0   0   0   0   0   0   0   0   0  52  11  20 133 168 160 157 157 155 153 152  66   7  34   0   0   0   0   0   0   0   0   0   0   0   0   0   0   0   0   0  86  95 104 104   0   0 
  0  23  41  27   0  21  61  63  40  35   0   0   0   0   0   0   0   0   0   0   0   0  42  13  35 164 166 160 157 157 155 153 153  85   9  20  90   0   0   0   0   0   0   0   0   0   0   0   0  12   3  10  34  92  97 107 119  59   0 
 17  16  47  21  13  35  55  98  45  46   0   0   0   0   0   0   0   0   0   0   0  48  17  13  75 172 162 163 162 158 155 156 157 106  16  19   0  59   0   0   0   0   0   0   0   0   0   0   0  38   0   8  29  42  38  32  42  66  73 
 15  26  29  38 170 171  28  21  36  43   0   0   0   0   0   0   0   0   0   0   0  47  15  14  54  47  33  44  96 156 159 121  58  26   5  22  51  11   0   0   0   0   0   0   0   0   0   0   0  35  10  24  74  20  23  64  15  42  73 
 23  77  79  41 216 250 108  42  33  42  37   0   0   0   0   0   0   0   0   0   0  53  27   6   8  32  44  30  10  56 102  16  17  41  41  20  12  33 231   0   0   0   0   0   0   0   0  24  19   8  43 181 246 198 183 149  13  32  73 
 49  90 224 200 239 255 250 212  65  18  27   0   0   0   0   0   0   0   0   0   0  56  20   9 111 235 255 232 104  12   5  46 190 253 253 182  35  13  59   0   0   0   0   0   0   0   0  27  21   8  69 253 255 255 255 229  76  14  44 
 22  28 180 255 255 255 255 255 100   9  21   0   0   0   0   0   0   0   0   0   0   0   7  68 244 248 208 237 249  49   9 182 255 224 216 255 163  17  11   0   0   0   0   0   0   0   0  21  15  43 179 255 255 255 255 255 246 179  43 
 17  23 170 255 255 255 255 255 130  17  24  36   0   0   0   0   0   0   0   0   0  25   5 133 255 159  20 116 253  90  46 229 239  44  45 222 229  27   0   0   0   0   0   0   0   0   0  28  16  60 222 255 255 255 255 239 111  54  38 
 10  27 157 255 255 255 255 255  86   9  29  36   0   0   0   0   0   0   0   0   0  33   5 108 255 194  67 159 255  80  29 217 248 100  95 235 200  21   1   0   0   0   0   0   0   0   0  49  32  12  93 255 255 255 255 248 127  27  22 
 45  15  36 162 246 255 255 233  87  23  60  31  94   0   0   0   0   0   0   0   0  29   3  26 198 255 253 255 194  20   1 108 250 255 255 246  82   8  35   0   0   0   0   0   0   0   0  48  38  20  28 115 244 239 216 244 192  36   7 
 36  28  11  40 226 250 190  93   9   4  30  56 214  58   0   0   0   0   0   0   0   8  14  13  21 128 177 132  19  14  30   8  71 170 165  66  16  28  71   0   0   0   0   0   0   0  82  50  51  35   3   7  67  88  22  66  69  22  43 
 37  49  17  33 175 127  34  21  21  10   4  23  73  91  50   0   0   0   0   0   0   4  39 117  34  11  12  11  34 115 152  60  14  11  10   5  27  87  69   0   0   0   0   0   0  91  42  40  20   4  11  37  32  24  28  35  15  15  41 
 37 180  38  35  33  20  18  30  61  52  11   4  14  34  63  60  49   0   0   0   0   5  45 173 164 125 112 129 155 160 155 158 130 107  83  13  28 202   0   0   0   0   0 255  61  96  47   9   2  18  55 122  44  37  83  60   1  21   0 
  0   0  31  11  16  56  32  32  61  56  41  28   5   5  26  63 255  58   0   0  71   1  44 144 163 177 170 166 161 158 155 155 152 160 128  14  18  56   0   0   0   0  47  29  74  50  13   3  15  60 111 160  43  39  35   0   0   0   0 
  0   0   0  14  17  52  30   0   0   0   9  65  22  10   4  18  34  73  52 102  74   7  11  14  42  92 132 148 153 153 151 143 124  84  42   7  13  32   0   0   0  70  70  36  23   7   8  29  47  55  95   0   0   0   0   0   0   0   0 
  0   0   0   0   0   0   0   0   0   0  73  49 255  43  21   4   7  25  53 111  61  26  24   8   2   8  14  19  24  25  25  20  13   7   8   5  29  63  80  33   4  71  29  12   4  10  43  66  23   0   0   0   0   0   0   0   0   0   0 
  0   0   0   0   0   0   0   0   0   0   0   0   0 241  57  22   9   2  12  25  49   6  55  54   7  38  32  25  20  19  20  23  30  49  44   6   8   0 123  54  33  19   5   7  17  34  76  65   0   0   0   0   0   0   0   0   0   0   0 
  0   0   0   0   0   0   0   0   0   0   0   0   0  85  51  85  36  26   9   3  13   4  49 140  19  14  63  72  69  69  69  71  73  67  15   3  19  77  53  17   4   4  13  35  51  21  68   0   0   0   0   0   0   0   0   0   0   0   0 
  0   0   0   0   0   0   0   0   0   0   0   0   0   0   0  44  17  63  39  23   7   2  38 169 110  11  19  64  67  66  66  67  69  30   7  13  19  25   5   5  24  39  33   0  34  42   0   0   0   0   0   0   0   0   0   0   0   0   0 
  0   0   0   0   0   0   0   0   0   0   0   0   0   0   0   0   0  61  33  58  34   8  26 156 172  91   9  20  64  70  69  71  43   6  49  50   2   4  11  45  81 166  29   0   0   0   0   0   0   0   0   0   0   0   0   0   0   0   0 
  0   0   0   0   0   0   0   0   0   0   0   0   0   0   0   0   0   0  72  50 116  16  16 137 174 168  87  12  11  30  37  21   7  33 134  60   6  34  56  97  63 109   0   0   0   0   0   0   0   0   0   0   0   0   0   0   0   0   0 
  0   0   0   0   0   0   0   0   0   0   0   0   0   0   0   0   0   0   0   0  47  33  12 110 176 167 166 108  30  15  14  19  57 132 152  66  14   4  42  64 114   0   0   0   0   0   0   0   0   0   0   0   0   0   0   0   0   0   0 
  0   0   0   0   0   0   0   0   0   0   0   0   0   0   0   0   0   0   0   0   0  33  11  76 175 167 164 164 156 131 120 140 153 149 151  72   5   1   0   0   0   0   0   0   0   0   0   0   0   0   0   0   0   0   0   0   0   0   0 
  0   0   0   0   0   0   0   0   0   0   0   0   0   0   0   0   0   0   0   0   0  21  15  38 163 168 162 160 159 160 157 155 151 147 150  79   3   0   0   0   0   0   0   0   0   0   0   0   0   0   0   0   0   0   0   0   0   0   0 
  0   0   0   0   0   0   0   0   0   0   0   0   0   0   0   0   0   0   0   0   0  66  23  17 137 173 161 160 157 157 155 153 151 147 150  86   9  59   0   0   0   0   0   0   0   0   0   0   0   0   0   0   0   0   0   0   0   0   0 
  0   0   0   0   0   0   0   0   0   0   0   0   0   0   0   0   0   0   0   0   0  86  20  15  89 172 161 160 157 157 155 153 151 147 151  87  14  57   0   0   0   0   0   0   0   0   0   0   0   0   0   0   0   0   0   0   0   0   0 
  0   0   0   0   0   0   0   0   0   0   0   0   0   0   0   0   0   0   0   0   0  79  47  17  41 164 165 160 157 157 155 153 151 146 153  91   7  27   0   0   0   0   0   0   0   0   0   0   0   0   0   0   0   0   0   0   0   0   0 
  0   0   0   0   0   0   0   0   0   0   0   0   0   0   0   0   0   0   0   0   0   0  71  14  18 134 168 160 157 157 155 153 151 146 153 101   5  11   0   0   0   0   0   0   0   0   0   0   0   0   0   0   0   0   0   0   0   0   0 
  0   0   0   0   0   0   0   0   0   0   0   0   0   0   0   0   0   0   0   0   0   0  68  33  10  73 167 160 157 157 155 153 151 145 149 108   4   2   0   0   0   0   0   0   0   0   0   0   0   0   0   0   0   0   0   0   0   0   0 
  0   0   0   0   0   0   0   0   0   0   0   0   0   0   0   0   0   0   0   0   0   0   0  68  17  29 150 163 157 157 155 153 151 145 148 107  10  28   0   0   0   0   0   0   0   0   0   0   0   0   0   0   0   0   0   0   0   0   0 
  0   0   0   0   0   0   0   0   0   0   0   0   0   0   0   0   0   0   0   0   0   0   0  68  27  10  98 166 157 157 155 153 151 145 148 108  15  40   0   0   0   0   0   0   0   0   0   0   0   0   0   0   0   0   0   0   0   0   0 
  0   0   0   0   0   0   0   0   0   0   0   0   0   0   0   0   0   0   0   0   0   0   0   0  32  12  36 155 161 157 155 153 151 145 149 108  12  22   0   0   0   0   0   0   0   0   0   0   0   0   0   0   0   0   0   0   0   0   0 
  0   0   0   0   0   0   0   0   0   0   0   0   0   0   0   0   0   0   0   0   0   0   0   0  40  13  13 102 164 158 155 153 151 145 148 112  12  11   0   0   0   0   0   0   0   0   0   0   0   0   0   0   0   0   0   0   0   0   0 
  0   0   0   0   0   0   0   0   0   0   0   0   0   0   0   0   0   0   0   0   0   0   0   0  40  62  16  36 150 157 154 153 151 145 147 120  12   4   0   0   0   0   0   0   0   0   0   0   0   0   0   0   0   0   0   0   0   0   0 
  0   0   0   0   0   0   0   0   0   0   0   0   0   0   0   0   0   0   0   0   0   0   0   0   0 103  27  13  97 160 154 153 151 145 147 127  15   1   0   0   0   0   0   0   0   0   0   0   0   0   0   0   0   0   0   0   0   0   0 
  0   0   0   0   0   0   0   0   0   0   0   0   0   0   0   0   0   0   0   0   0   0   0   0   0  74  38   9  33 145 157 153 151 145 147 126  23  18   0   0   0   0   0   0   0   0   0   0   0   0   0   0   0   0   0   0   0   0   0 
  0   0   0   0   0   0   0   0   0   0   0   0   0   0   0   0   0   0   0   0   0   0   0   0   0   0  38  36  11  85 160 153 151 145 147 127  27  21   0   0   0   0   0   0   0   0   0   0   0   0   0   0   0   0   0   0   0   0   0 
  0   0   0   0   0   0   0   0   0   0   0   0   0   0   0   0   0   0   0   0   0   0   0   0   0   0   0  64  23  23 135 157 151 146 150 133  26   4   0   0   0   0   0   0   0   0   0   0   0   0   0   0   0   0   0   0   0   0   0 
  0   0   0   0   0   0   0   0   0   0   0   0   0   0   0   0   0   0   0   0   0   0   0   0   0   0   0 121  50  12  58 159 157 142 120  83  14   2   0   0   0   0   0   0   0   0   0   0   0   0   0   0   0   0   0   0   0   0   0 
  0   0   0   0   0   0   0   0   0   0   0   0   0   0   0   0   0   0   0   0   0   0   0   0   0   0   0  81  56  15   9  60  54  31   9   4  13  26   0   0   0   0   0   0   0   0   0   0   0   0   0   0   0   0   0   0   0   0   0 
  0   0   0   0   0   0   0   0   0   0   0   0   0   0   0   0   0   0   0   0   0   0   0   0   0   0   0  56  33   8   3   7  11  16  28   7  28  72   0   0   0   0   0   0   0   0   0   0   0   0   0   0   0   0   0   0   0   0   0 
  0   0   0   0   0   0   0   0   0   0   0   0   0   0   0   0   0   0   0   0   0   0   0   0   0   0   0  54  17   5  33  38  55 116  50  10  11  41  56   0   0   0   0   0   0   0   0   0   0   0   0   0   0   0   0   0   0   0   0 
  0   0   0   0   0   0   0   0   0   0   0   0   0   0   0   0   0   0   0   0   0   0   0   0   0   0  85  46  10  18  57   7  47  82  78  31   5  28  59   0   0   0   0   0   0   0   0   0   0   0   0   0   0   0   0   0   0   0   0 
  0   0   0   0   0   0   0   0   0   0   0   0   0   0   0   0   0   0   0   0   0   0   0   0   0   0  85  25   5  29  76  91   0   0 255  36   8  16  45  47   0   0   0   0   0   0   0   0   0   0   0   0   0   0   0   0   0   0   0 
  0   0   0   0   0   0   0   0   0   0   0   0   0   0   0   0   0   0   0   0   0   0   0   0   0  62  46  13  14  48  76   0   0   0   0  45  17   5  20  53   0   0   0   0   0   0   0   0   0   0   0   0   0   0   0   0   0   0   0 
  0   0   0   0   0   0   0   0   0   0   0   0   0   0   0   0   0   0   0   0   0   0   0   0   0  65  24   5  19  80   0   0   0   0   0 120  34   8  16  38  76   0   0   0   0   0   0   0   0   0   0   0   0   0   0   0   0   0   0 
  0   0   0   0   0   0   0   0   0   0   0   0   0   0   0   0   0   0   0   0   0   0   0   0 129  47  15   8  33 255   0   0   0   0   0  66  33  13   8  33  74   0   0   0   0   0   0   0   0   0   0   0   0   0   0   0   0   0   0 
  0   0   0   0   0   0   0   0   0   0   0   0   0   0   0   0   0   0   0   0  78  40  19  18 121  42   7  20  52 159   0   0   0   0   0   0  41  16   7  22 234  18  19  46  80   0   0   0   0   0   0   0   0   0   0   0   0   0   0 
  0   0   0   0   0   0   0   0   0   0   0   0   0   0   0   0  44  86  59  19 100  45  21  21  51  22  10  38  84  52  68   0   0   0  42  52  27  34  11  14  32  20  21  52 114  22  63  87  51   0   0   0   0   0   0   0   0   0   0 
  0   0   0   0   0   0   0   0   0   0   0   0   0   0   0  80  10  72  49  16   8   8   5   3   5   4   4  15  32  53  95   0   0   0  85  46  21   7   5   3   3   3   5   9   6  18  53  74  21  77   0   0   0   0   0   0   0   0   0 
  0   0   0   0   0   0   0   0   0   0   0   0   0   0   0  93  28  11   9  25  62  85 100 100  93  80  61  27  10  28  57   0   0   0  25  11  13  53  77  93  99 100  99  82  58  22   9  12  34  90   0   0   0   0   0   0   0   0   0 
  0   0   0   0   0   0   0   0   0   0   0   0   0   0  34  47  12  36 149 224 250 255 255 255 255 255 250 233 110  11   8   0   0   0   0  21 186 250 253 255 255 255 255 255 250 218 139  29  13  46  72   0   0   0   0   0   0   0   0 
  0   0   0   0   0   0   0   0   0   0   0   0   0   0  34   8  37 222 255 255 255 255 255 255 255 255 255 244  96  11  19   0   0   0  13  13 114 244 255 255 255 255 255 255 255 255 255 204  27  16  72   0   0   0   0   0   0   0   0 
  0   0   0   0   0   0   0   0   0   0   0   0   0   0  46  11  41 183 215 229 231 231 233 227 212 184 121  49  11  44  96   0   0   0  65  25  11  52 109 181 212 227 233 231 233 229 214 173  30  17  77   0   0   0   0   0   0   0   0 
  0   0   0   0   0   0   0   0   0   0   0   0   0   0  63  22  12  19  23  30  32  32  32  29  22  17  13  14  36  94 175   0   0   0 120  68  42  26   9  17  21  30  32  32  32  30  22  17  12  23  83   0   0   0   0   0   0   0   0 
  0   0   0   0   0   0   0   0   0   0   0   0   0   0   0  16  41   6   9  10   8   9   9  10   6   3  36  80 255  94   0   0   0   0   0  69 193  95  40   4   8  11   8   9   9  11   8   7  43  24   0   0   0   0   0   0   0   0   0 

