P2
  49  64
 255
  0   0   0   0   0   0   0   0   0   0   0   0   0   0   0   0   0   0   0   0   0   0 119 130  80  16  13  24  39  47  69  66   0   0   0   0   0   0   0   0   0   0   0   0   0   0   0   0   0 
  0   0   0   0   0   0   0   0   0   0   0   0   0   0   0   0   0   0   0   0   0 111 137  94  35   7  19   9   6  23  53  92  75   0   0   0   0   0   0   0   0   0   0   0   0   0   0   0   0 
  0   0   0   0   0   0   0   0   0   0   0   0   0   0   0   0   0   0   0   0 106 132  90  32   7  64 148 127  46   5  30  98  75   0   0   0   0   0   0   0   0   0   0   0   0   0   0   0   0 
  0   0   0   0   0   0   0   0   0   0   0   0   0   0   0   0   0   0   0   0 139 108  34   6  65 155 157 156  79  12  15  15   0   0   0   0   0   0   0   0   0   0   0   0   0   0   0   0   0 
  0   0   0   0   0   0   0   0   0   0   0   0   0   0   0   0   0   0   0  32  44  35   6  62 156 157 154 152  50  11  39  35   0   0   0   0   0   0   0   0   0   0   0   0   0   0   0   0   0 
  0   0   0   0   0   0   0   0   0   0   0   0   0   0   0   0   0   0  49  57  20   5  60 150 158 154 154 143  36  11  49  43   0   0   0   0   0   0   0   0   0   0   0   0   0   0   0   0   0 
  0   0   0   0   0   0   0   0   0   0   0   0   0   0   0   0   0  63  89  28   7  46 150 157 156 155 155 138  30   8  51  43   0   0   0   0   0   0   0   0   0   0   0   0   0   0   0   0   0 
  0   0   0   0   0   0   0   0   0   0   0   0   0   0   0   0  79 104  51  10  28 138 164 157 157 155 159 126  27   6   3  42   0   0   0   0   0   0   0   0   0   0   0   0   0   0   0   0   0 
  0   0   0   0   0   0   0   0   0   0   0   0   0   0   0   0  42  50  17  15 116 166 157 157 156 155 158 117  21   5   5   0   0   0   0   0   0   0   0   0   0   0   0   0   0   0   0   0   0 
  0   0   0   0   0   0   0   0   0   0   0   0   0   0   0  45  65  20   7  80 165 160 157 157 155 154 158 115  15   2   2   0   0   0   0   0   0   0   0   0   0   0   0   0   0   0   0   0   0 
  0   0   0   0   0   0   0   0   0   0   0   0   0   0  55  70  42  10  48 159 165 160 157 157 155 154 159 112  17   9  10   0   0   0   0   0   0   0   0   0   0   0   0   0   0   0   0   0   0 
  0   0   0   0   0   0   0   0   0   0   0   0   0   0 111  36  13  13 127 169 161 160 157 157 155 154 160 111  18  12  12   0   0   0   0   0   0   0   0   0   0   0   0   0   0   0   0   0   0 
  0   0   0   0   0   0   0   0   0   0   0   0   0   0  39  31   6  84 171 166 160 160 157 157 155 154 160 112  17  12  12   0   0   0   0   0   0   0   0   0   0   0   0   0   0   0   0   0   0 
  0   0   0   0   0   0   0   0   0   0   0   0   0  34  34   7  33 152 167 162 161 160 157 157 155 154 158 109  17  12  12   0   0   0   0   0   0   0   0   0   0   0   0   0   0   0   0   0   0 
  0   0   0   0   0   0   0   0   0   0   0   0   0  21  21  10  93 171 164 162 161 160 157 157 156 159 162 112  18   6   6   0   0   0   0   0   0   0   0   0   0   0   0   0   0   0   0   0   0 
  0   0   0   0   0   0   0   0   0   0   0   0  44  50   9  34 155 173 166 164 161 160 157 160 152 120 101  71  15   5   4  24  26  54  59   0   0   0   0   0   0   0   0   0   0   0   0   0   0 
  0   0   0   0   0   0   0   0   0   0   0  45   4  20  11  87 173 168 166 164 161 160 159 129  32   5   6   4   2   6  25  23  22  44  36  34   0   0   0   0   0   0   0   0   0   0   0   0   0 
  0   0   0   0   0   0   0   0   0   0   0  37  44  12  24 145 174 166 166 164 160 161 125  23  13  83 147 147  85  14   4  22   8   6  19  37  30   0   0   0   0   0   0   0   0   0   0   0   0 
  0   0   0   0   0   0   0   0   0   0   0  15  16   8  50 170 169 166 166 164 163 153  39  15 151 248 255 255 250 149  12  61 196  69   8  19 107  61   0   0   0   0   0   0   0   0   0   0   0 
  0   0   0   0   0   0   0   0   0   0  60 105  20  14 100 177 168 166 166 162 166 112  10  95 253 255 255 255 255 255  83  19 186 235  59  13  35  31   0   0   0   0   0   0   0   0   0   0   0 
  0   0   0   0   0   0   0   0   0   0  48  60  23  19 140 176 166 166 164 162 163  80   7 166 255 255 255 255 244 146  40   6 141 184  48  10   9  10   0   0   0   0   0   0   0   0   0   0   0 
  0   0   0   0   0   0   0   0   0   0  24  28  14  33 160 173 166 166 164 162 162  82   8 177 255 255 255 255 224  43   0   8 147  96   1   4  12  11   0   0   0   0   0   0   0   0   0   0   0 
  0   0   0   0   0   0   0   0   0   0  10   9  11  62 172 174 172 167 164 162 166  97   6 122 255 255 255 255 250 163  28  16 173 199  52  11  14  13   0   0   0   0   0   0   0   0   0   0   0 
  0   0   0   0   0   0   0   0   0   0   7   5  12  88 180 166 155 171 166 164 166 144  25  18 196 255 255 255 255 196  23  46 231 229  50  10  37  32   0   0   0   0   0   0   0   0   0   0   0 
  0   0   0   0   0   0   0   0   0  51 214  11   7 109 180 151  74 115 172 164 161 165  86   5  28 147 212 212 153  22  10 144 179  55   9  43  92  80   0   0   0   0   0   0   0   0   0   0   0 
  0   0   0   0   0   0   0   0   0  61  77  40  13 118 183 164  47  16 102 166 168 161 161  77   9  10  25  26  10   1   8  31  23  11  50 102  96   0   0   0   0   0   0   0   0   0   0   0   0 
  0   0   0   0   0   0   0   0   0  76  92  54  20 117 182 170  68   1   6  52 132 161 165 161 125  55  30  32  44  14   8   4   7  46  85  86   0   0   0   0   0   0   0   0   0   0   0   0   0 
  0   0   0   0   0   0   0   0   0  75  92  52  18 118 179 175 100   5   6   6   9  53 118 151 164 167 155 158 137  21  15  54  44   0   0   0   0   0   0   0   0   0   0   0   0   0   0   0   0 
  0   0   0   0   0   0   0   0   0  75 255  12   9 118 179 174 139  22  15  43  18   3   6  33  82 120 143 157 147  31  11  33  28   0   0   0   0   0   0   0   0   0   0   0   0   0   0   0   0 
  0   0   0   0   0   0   0   0   0   0   4   3   9  91 175 172 169  58   5  45  69  49  27   8   3   9  28  52  70  25  12  25  22   0   0   0   0   0   0   0   0   0   0   0   0   0   0   0   0 
  0   0   0   0   0   0   0   0   0   0   6   5   9  70 175 169 174 131  14   9  60  72  68  59  46  25   7   3   2   7  24  42  37   0   0   0   0   0   0   0   0   0   0   0   0   0   0   0   0 
  0   0   0   0   0   0   0   0   0   0  17  18  13  48 171 171 168 172  73   5  19  63  69  67  69  68  68  32  11  36  51  49   0   0   0   0   0   0   0   0   0   0   0   0   0   0   0   0   0 
  0   0   0   0   0   0   0   0   0   0  37  46  18  25 156 175 167 172 164  61   5  12  53  68  69  67  70  43  12  27  26   0   0   0   0   0   0   0   0   0   0   0   0   0   0   0   0   0   0 
  0   0   0   0   0   0   0   0   0   0  54  67  27  17 126 175 166 166 171 163  68   6   6  30  55  68  71  52  10  14  14   0   0   0   0   0   0   0   0   0   0   0   0   0   0   0   0   0   0 
  0   0   0   0   0   0   0   0   0   0  60 255  20  15  86 176 168 166 166 166 162 103  32   3   5  17  34  39  11  12  63  56  53   0   0   0   0   0   0   0   0   0   0   0   0   0   0   0   0 
  0   0   0   0   0   0   0   0   0   0   0  30  35  10  38 164 174 166 166 164 161 164 150  99  51  11   4   3   2   5  22  28  12  22   0   0   0   0   0   0   0   0   0   0   0   0   0   0   0 
  0   0   0  26  34  18   4  37  36   0   0  46  57  15  18 130 174 166 166 164 161 160 159 163 156 138 107  78  49  22   8  14  18  17   0   0   0   0   0   0   0  74  75  78  83  83   0   0   0 
  0   0  33  33  16  29  20  49  70  66   0   0  20  21   8  77 173 169 166 164 161 160 157 156 156 159 159 158 154 146  73   9  27  83  49   0   0   0  17  20   5  18  45  27  18  31  49  47   0 
  0   0   5  24  60 151 147  33  13  25  57  76  37  44   5  27 145 173 164 162 161 160 157 157 155 154 154 151 151 154 107   6  21  41  31   0  23  30  14   7  37  40   8  16  34  22  20  20   0 
 17  29  62  15  74 244 237  79  17  30  47  53  50  29  28   7  85 170 164 162 161 160 157 157 155 154 154 151 151 153 125  17  17  25  22   0  26  22  29  80 194 196 100 136 104   5  26  65  55 
 31  60 218 139 133 242 255 222 166  63  37  31   2  54  51   9  26 144 169 162 161 160 157 157 155 154 154 151 151 151 139  39   9   8   9 128 127  17  39 202 255 255 250 250 185  27  20  60 255 
 49  42 119 248 248 255 255 255 255 154  14  18  22   0  34  25   5  70 167 164 160 160 157 157 155 154 154 151 151 151 149  64   4  23  23  19  65  25  63 226 255 255 255 255 250 152  59  40  10 
 52  17  67 237 255 255 255 255 255 195  17  14  17   0  26  32  20  13 117 171 161 160 157 157 155 154 154 151 151 152 152  89   6  33  29  31  10  57 204 255 255 255 255 255 253 242 231  82   5 
 41  17  69 239 255 255 255 255 255 216  46  20  67  69  68  96  49  10  32 154 165 160 157 157 155 154 154 151 151 150 150 111  15  22  48  48  12  51 192 255 255 255 255 255 233  96  37  42  22 
 20  21  79 231 255 255 255 255 255 168  10  18  52  98  94  43  71  22   7  55 161 161 157 157 155 154 154 151 151 148 148 135  35  16  80  53  52   9  68 250 255 255 255 255 244 125  22  28  51 
 23   4  10 103 236 255 255 255 253 182  26  48  50  99  95 114  34  52  14   5  85 162 159 157 156 154 154 151 151 148 148 148  55   9  53  60  44  12  29 136 233 255 248 246 255 232  65  18  61 
 29  31  21   5  90 247 253 246 183  51   4  26  69  45  66  54  60  36   8   2  12  98 163 158 156 155 154 151 151 148 145 149  81  10  30  92  56  43  12   8  85 173 106  71 144 106  21  13  15 
 35  37  29   4  82 242 216 107  53  10   5   4  10  27  38  84  39  11   5  33  13  14 103 160 155 154 154 151 151 151 147 149 113  18  17  53  46  48   9   6  11  31  26  10  32  38  24  62  14 
 84  84  91  16  64  98  47  14  16  36  28  23   5   3   7  36  22   4  18  49  51  12  15  92 159 155 154 151 151 151 147 148 136  33   1   8  14   8   5  21  62  38  28  86 103  75  76  27   0 
  0   0  82  82  35  15   3  21  49  59  96  74  40  11   5   3   2  13  44  43  86  51  11   8  73 154 156 151 151 151 147 145 144  55   2   5   4   3  17  38  50  56  56  56   0   0   0   0   0 
  0   0   0  28  28  19  45  56  62  62   0   0  28  29  21  17  15  35  75  73  52  39  13   2   5  51 139 156 151 151 147 145 150  89  15  17  46  43  42  43   0   0   0   0   0   0   0   0   0 
  0   0   0   0   0   0   0   0   0   0   0   0   0   0  57  54  40  48  49  64  61  18   3  24  29   6  27 100 146 150 146 146 149 124  25  17  78  82  78  79   0   0   0   0   0   0   0   0   0 
  0   0   0   0   0   0   0   0   0   0   0   0   0   0   0   0   0   0  31  33  20   3  18  54  71  26  13   6  45 100 143 152 149  94  15   6  38  64 255  82   0   0   0   0   0   0   0   0   0 
  0   0   0   0   0   0   0   0   0   0   0   0   0   0   0   0   0  64  86  27   4  11  47  63  54  48  57  25   9   8  35  58  47  12   8   6   5  36  45  37   0   0   0   0   0   0   0   0   0 
  0   0   0   0   0   0   0   0   0   0   0   0   0   0   0   0  79  96  57  12   5  24  43  32   0   0  76  84  61  29  15   5   6  29  50  38   6   3  29  76  80   0   0   0   0   0   0   0   0 
  0   0   0   0   0   0   0   0   0   0   0   0   0   0   0   0  46  55  23   3  19  35  29   0   0   0   0   0 109 113  77  31  31  89  52  58  42   8   7  42  44   0   0   0   0   0   0   0   0 
  0   0   0   0   0   0   0   0   0   0  49  54  38 255  54  34  10  17   9  10  59  88   0  64   0   0   0   0   0   0   0   0  61  65  48  91  69  30   4  12  19  41  69  66  28  69  69   0   0 
  0   0   0   0   0   0   0   0   0  66  52  29  29   6   3   4   2   3   2   2   5  19  41  29  81  76   0   0   0   0   0  95  87  44  36  10   4   4   2   2   3   4   6  12  31  50  27  42   0 
  0   0   0   0   0   0   0   0  57  53  26   8  10  45  97 132 156 163 147 125  80  28   7  19  38  33  35   0   0   0  79  78  56  12   4  24  85 122 146 164 156 131  96  44   6   8  22  78 108 
  0   0   0   0   0   0   0  73  80  24   7  54 177 239 250 253 255 255 253 253 250 224 136  26   8  27 115  61   0   0  47  44  14  22 139 226 250 253 253 255 255 253 250 242 170  46   7  41  80 
  0   0   0   0   0   0   0  19  19   5  73 231 255 255 255 255 255 255 255 255 255 255 255 198  24  11  36  29   0  53  56   7  28 196 255 255 255 255 255 255 255 255 255 255 255 231  57   8   8 
  0   0   0   0   0   0   0   3   3   3 111 247 255 255 255 255 255 255 255 255 255 255 255 224  34   6  18  15   0  56  57  10  63 226 255 255 255 255 255 255 255 255 255 255 255 246 107   8   1 
  0   0   0   0   0   0   0  10  10  11  10  29  73  99 105 104 104 104 104 104 104  87  57  18  10  46  86  74   0  59  61  24   7  20  62  87 105 106 104 104 104 104 104  96  73  33  12  30  46 
  0   0   0   0   0   0   0   0  29  28  22  15   8   2   2   2   2   2   2   2   2   2  12  18  27  96 134 119   0   0  38  39  38  18  10   3   2   2   2   2   2   2   2   2   9  16  36  64 108 

