P2
  55  64
 255
  0   0   0   0   0   0   0   0   0   0   0   0   0   0   0   0   0   0   0   0   0   0   0  54  16   1   1   9  16  19  31  95   0   0   0   0   0   0   0   0   0   0   0   0   0   0   0   0   0   0   0   0   0   0   0 
  0   0   0   0   0   0   0   0   0   0   0   0   0   0   0   0   0   0   0   0   0   0  42  37  12   7   9  13  13  14  38 103   0   0   0   0   0   0   0   0   0   0   0   0   0   0   0   0   0   0   0   0   0   0   0 
  0   0   0   0   0   0   0   0   0   0   0   0   0   0   0   0   0   0   0   0   0   0  50  15  24  97 112 116 117  25  22  46   0   0   0   0   0   0   0   0   0   0   0   0   0   0   0   0   0   0   0   0   0   0   0 
  0   0   0   0   0   0   0   0   0   0   0   0   0   0   0   0   0   0   0   0   0   0  34  10  57 159 159 161 164  83   7  32  66   0   0   0   0   0   0   0   0   0   0   0   0   0   0   0   0   0   0   0   0   0   0 
  0   0   0   0   0   0   0   0   0   0   0   0   0   0   0   0   0   0   0   0   0  64  17  13  97 158 155 156 162 140  23  16  67   0   0   0   0   0   0   0   0   0   0   0   0   0   0   0   0   0   0   0   0   0   0 
  0   0   0   0   0   0   0   0   0   0   0   0   0   0   0   0   0   0   0   0   0  82  28  26 130 155 156 157 159 166  62   9  44  62   0   0   0   0   0   0   0   0   0   0   0   0   0   0   0   0   0   0   0   0   0 
  0   0   0   0   0   0   0   0   0   0   0   0   0   0   0   0   0   0   0   0   0  50  20  39 150 155 156 157 158 168 121  17  16  66   0   0   0   0   0   0   0   0   0   0   0   0   0   0   0   0   0   0   0   0   0 
  0   0   0   0   0   0   0   0   0   0   0   0   0   0   0   0   0   0   0   0  64  14  12  64 156 154 156 157 158 165 158  30  12  45 102   0   0   0   0   0   0   0   0   0   0   0   0   0   0   0   0   0   0   0   0 
  0   0   0   0   0   0   0   0   0   0   0   0   0   0   0   0   0   0   0   0  71   8  12  90 156 154 156 157 158 160 170  73  11  17 121   0   0   0   0   0   0   0   0   0   0   0   0   0   0   0   0   0   0   0   0 
  0   0   0   0   0   0   0   0   0   0   0   0   0   0   0   0   0   0   0   0  56  20  13 115 154 154 156 157 158 160 171 127  12  26  87   0   0   0   0   0   0   0   0   0   0   0   0   0   0   0   0   0   0   0   0 
  0   0   0   0   0   0   0   0   0   0   0   0   0   0   0   0   0   0   0   0  35  16  20 130 154 154 156 157 158 160 166 154  26  14  32   0   0   0   0   0   0   0   0   0   0   0   0   0   0   0   0   0   0   0   0 
  0   0   0   0   0   0   0   0   0   0   0   0   0   0   0   0   0   0   0  47  65  14  28 134 158 156 155 160 165 152 147 166  68   5  13   0   0   0   0   0   0   0   0   0   0   0   0   0   0   0   0   0   0   0   0 
  0   0   0   0   0   0   0   0   0   0   0   0   0   0   0   0   0   0  58  64  40  11   8  26  57 131 160 130  55  26  20  38  44   6  28   0   0   0   0   0   0   0   0   0   0   0   0   0   0   0   0   0   0   0   0 
  0   0   0   0   0   0   0   0   0   0   0   0   0   0   0   0   0 103  61  22  12  36  95  55  15  25  93  24  14  61  85  35   5   5  26  73   0   0   0   0   0   0   0   0   0   0   0   0   0   0   0   0   0   0   0 
  0   0   0   0   0  21  39  71   0   0   0   0   0   0   0   0   0 110  36  12 109 239 255 255 172  24   4  26 175 255 255 244 104   6  14  85   0   0   0   0   0   0   0   0   0   0   0   0   0  93 104 118   0   0   0 
  0   0  74  33   6  20  38  75   0   0   0   0   0   0   0   0   0  16  10  50 237 239 200 231 255 125   6 111 255 222 200 246 248  56   9  62   0   0   0   0   0   0   0   0   0   0  45  18  10 141 123 255  54   0   0 
 17  16  96  33   5  22  43  79  39  59  90   0   0   0   0   0   0   0   5 103 255 151  15 105 255 183  24 153 253  63  20 192 255 100   6  34   0   0   0   0   0   0   0   0  12   3  50  17   9  46  53  35  55  38   0 
  1  15  34  36  82 132  42  15  38  59  90   0   0   0   0   0   0   1   5  78 246 194  64 156 255 157  11 133 255 119  78 224 254  79   5  31   0   0   0   0   0   0   0   0  19   4   7  35  22   7  26  34  22  29   0 
 22  43  58  22 184 255 103  10  27  42   3   0   0   0   0   0   0  57  19  16 161 255 255 255 228  46   1  51 230 255 255 255 178  12   4  22   0   0   0   0   0   0   0   0 156  23  69 186 177 102 151  51   7  50  39 
 28  80 220 140 198 255 239 188  82  28  27   0   0   0   0   0   0 191  53  21  20 117 175 151  40   9  45  13  46 146 179 110  19  13  15   9  93   0   0   0   0   0  30  23  42  25 170 255 255 255 244 125  21  23  45 
 37  36 149 255 255 255 255 255 158   9  12 115   0   0   0   0   0   0 101  83  24   5  11   9  21  79 155  92  26  13  12  10  37 119  29   2 103   0   0   0   0   0  31  23  23  67 220 255 255 255 255 246 146  69   8 
 30  13 121 255 255 255 255 255 204  29  16 164  77   0   0   0   0   0  96 170  15  30  85  98 138 159 156 160 147 110  94 120 172 165  28  19  88   0   0   0   0   0  60  22  22 184 255 255 255 255 255 229 156 101   7 
 26  27 133 255 255 255 255 255 183  19  30  69  77   0   0   0   0   0   0  82   1  49 155 156 153 154 155 157 159 165 174 176 170 144  28  13  50   0   0   0   0   0  76  52  22  64 233 255 255 255 255 178  20  19  40 
 33  16  43 210 253 255 255 255 170  21  32  52  77   0   0   0   0   0   0  62  15  17  79 117 143 155 157 160 161 155 141 110  48  15   9   9  18   0   0   0   0   0  76  56  16  14 151 253 255 253 255 250 132  29  26 
 86  35  17  50 202 255 248 204  71   8  34  51  80   0   0   0   0   0   0  20  11   4   5   8  22  36  40  41  39  29  10   6   2  10  17   8  13   0   0   0   0   0   0  33  43  23  10  98 189 124 115 184  60   6  13 
 67  38  25  10 186 244 125  48  12   3  15  49 103  69   0   0   0   0   0  14   6  13  50  39  21  10   9   9  11  19  33  34   6  63  37   5  16   0   0   0   0  42  46  62  41   6   6  24  43  26  20  50  39   0  17 
  0  71  66  33  87  46  21  19  43  24   3  13  39  74  42   0   0   0   0  48  15   3  41  70  69  70  68  68  68  70  62  13  23 141  33  10  39   0   0   0   0  15  44  27   6   8  40  73  38  39  71  52  53   0   0 
  0  68  74  43  19  30  29  33  61  58  35   5  11  29  76  26  31   0   0  12  10   8  10  56  69  67  67  67  70  65  19  10 112 168  27  17  81   0   0   0  50  21  14   4  13  60  82  66  59  49  64  51  51   0   0 
  0   0  53   0   8  65  53  35  55   0  73  43   5   5  20  28   6  12  25   3  11  64  14  18  67  69  69  69  63  22   9  88 172 152  24   2 101   3   4  50  56  15   2  10  73 140  39 246  51  45   0   0   0   0   0 
  0   0   0   0   0   0   0   0   0   0  72 105  27   8   4  10  12  11  22  15  14 102  76   8  16  49  56  46  16   9  81 166 175 132  16   5   3   3   4  32  17   4   6  24  77 144   0   0   0   0   0   0   0   0   0 
  0   0   0   0   0   0   0   0   0   0   0  98  76  26  12   9   6   4   3   3  10 106 150  79  15   6   5   5  16  97 167 168 175  98   4   4   4   4   4   5   3  11  24  17   0   0   0   0   0   0   0   0   0   0   0 
  0   0   0   0   0   0   0   0   0   0   0   0  37  46  43  43  27  30  16   8  13 112 150 149 136 100  81 101 142 166 165 169 174  66   3   6   4   4   4   2  18  39   0  26   0   0   0   0   0   0   0   0   0   0   0 
  0   0   0   0   0   0   0   0   0   0   0   0   0   0  46  46  29  34  18   6  20 121 149 148 153 159 160 163 162 160 164 169 160  42   8  10   3   4   3   2  28  41   0   0   0   0   0   0   0   0   0   0   0   0   0 
  0   0   0   0   0   0   0   0   0   0   0   0   0   0   0   0   0   0   0  13  27 127 149 148 152 154 155 157 158 160 162 171 134  16  21  10   3   4   3   2  27   0   0   0   0   0   0   0   0   0   0   0   0   0   0 
  0   0   0   0   0   0   0   0   0   0   0   0   0   0   0   0   0   0   0   4  23 129 149 149 152 154 156 157 158 160 164 175  97   7  40   0   0   0   0   0   0   0   0   0   0   0   0   0   0   0   0   0   0   0   0 
  0   0   0   0   0   0   0   0   0   0   0   0   0   0   0   0   0   0  90   1  21 132 147 149 152 154 156 157 158 160 165 163  43  10   6   0   0   0   0   0   0   0   0   0   0   0   0   0   0   0   0   0   0   0   0 
  0   0   0   0   0   0   0   0   0   0   0   0   0   0   0   0   0   0  92   4  26 138 147 149 152 154 156 157 158 160 171 132  14  25  79   0   0   0   0   0   0   0   0   0   0   0   0   0   0   0   0   0   0   0   0 
  0   0   0   0   0   0   0   0   0   0   0   0   0   0   0   0   0   0  88  35  34 137 147 149 152 154 156 157 158 160 169  72  10  13 130   0   0   0   0   0   0   0   0   0   0   0   0   0   0   0   0   0   0   0   0 
  0   0   0   0   0   0   0   0   0   0   0   0   0   0   0   0   0   0  55  22  33 137 147 149 152 154 156 157 158 165 154  26  13  50  95   0   0   0   0   0   0   0   0   0   0   0   0   0   0   0   0   0   0   0   0 
  0   0   0   0   0   0   0   0   0   0   0   0   0   0   0   0   0   0  30  11  31 140 147 149 152 154 156 157 158 168 104  13  23  74   0   0   0   0   0   0   0   0   0   0   0   0   0   0   0   0   0   0   0   0   0 
  0   0   0   0   0   0   0   0   0   0   0   0   0   0   0   0   0   0  11   5  32 142 146 149 152 154 156 157 160 157  46   9  49  67   0   0   0   0   0   0   0   0   0   0   0   0   0   0   0   0   0   0   0   0   0 
  0   0   0   0   0   0   0   0   0   0   0   0   0   0   0   0   0   0   2   1  34 144 146 149 152 154 156 157 164 113  13  25  50   0   0   0   0   0   0   0   0   0   0   0   0   0   0   0   0   0   0   0   0   0   0 
  0   0   0   0   0   0   0   0   0   0   0   0   0   0   0   0   0   0   3   2  39 146 146 149 152 154 156 160 157  45  12  44   0   0   0   0   0   0   0   0   0   0   0   0   0   0   0   0   0   0   0   0   0   0   0 
  0   0   0   0   0   0   0   0   0   0   0   0   0   0   0   0   0   0  53  22  46 144 146 149 152 154 154 162 111  12  22  88   0   0   0   0   0   0   0   0   0   0   0   0   0   0   0   0   0   0   0   0   0   0   0 
  0   0   0   0   0   0   0   0   0   0   0   0   0   0   0   0   0   0  37  17  48 146 145 149 152 154 156 150  39  16  41  74   0   0   0   0   0   0   0   0   0   0   0   0   0   0   0   0   0   0   0   0   0   0   0 
  0   0   0   0   0   0   0   0   0   0   0   0   0   0   0   0   0   0  14  10  50 146 145 149 152 154 160 100  11  17  83   0   0   0   0   0   0   0   0   0   0   0   0   0   0   0   0   0   0   0   0   0   0   0   0 
  0   0   0   0   0   0   0   0   0   0   0   0   0   0   0   0   0   0   2   3  58 147 145 149 152 156 143  27  11  48  71   0   0   0   0   0   0   0   0   0   0   0   0   0   0   0   0   0   0   0   0   0   0   0   0 
  0   0   0   0   0   0   0   0   0   0   0   0   0   0   0   0   0   0  12  10  64 153 150 151 153 158  79   5  30  51   0   0   0   0   0   0   0   0   0   0   0   0   0   0   0   0   0   0   0   0   0   0   0   0   0 
  0   0   0   0   0   0   0   0   0   0   0   0   0   0   0   0   0   0  38  15  18  57  86 123 150 124  14   4  24  61   0   0   0   0   0   0   0   0   0   0   0   0   0   0   0   0   0   0   0   0   0   0   0   0   0 
  0   0   0   0   0   0   0   0   0   0   0   0   0   0   0   0   0   0  61  33   3   5   8  17  30  24   8   6  17  47  64   0   0   0   0   0   0   0   0   0   0   0   0   0   0   0   0   0   0   0   0   0   0   0   0 
  0   0   0   0   0   0   0   0   0   0   0   0   0   0   0   0   0 153  52  21   8  47  36  13  14  14  37  16   5  30  64   0   0   0   0   0   0   0   0   0   0   0   0   0   0   0   0   0   0   0   0   0   0   0   0 
  0   0   0   0   0   0   0   0   0   0   0   0   0   0   0   0   0  98  49   7  15  61  19   2  68  48  57  42   8  18  47  65   0   0   0   0   0   0   0   0   0   0   0   0   0   0   0   0   0   0   0   0   0   0   0 
  0   0   0   0   0   0   0   0   0   0   0   0   0   0   0   0   0  49  20   6  35  77 131  66  52  39  24  47  15   7  29  68   0   0   0   0   0   0   0   0   0   0   0   0   0   0   0   0   0   0   0   0   0   0   0 
  0   0   0   0   0   0   0   0   0   0   0   0   0   0   0   0  60  36   9  11  37  71   0   0   0   0  98  53  24   6  20  47   0   0   0   0   0   0   0   0   0   0   0   0   0   0   0   0   0   0   0   0   0   0   0 
  0   0   0   0   0   0   0   0   0   0   0   0   0   0   0   0  68  24   6  17  64   0   0   0   0   0   0  53  30   9  10  41   0   0   0   0   0   0   0   0   0   0   0   0   0   0   0   0   0   0   0   0   0   0   0 
  0   0   0   0   0   0   0   0   0   0   0  95  59  22  18  41  48  17   8  32  58   0   0   0   0   0   0   0  39  15   7  21  27  18  20  51  84   0   0   0   0   0   0   0   0   0   0   0   0   0   0   0   0   0   0 
  0   0   0   0   0   0   0   0  13 255  84  61  57  21  16  35  32   8  17  58   0  42   0   0   0   0  37   3 154  39  10  12  24  16  19  49  73  59 244   0  54   0   0   0   0   0   0   0   0   0   0   0   0   0   0 
  0   0   0   0   0   0  93  50  53  49  21   6   7   5   4   3   5   2   8  44  73 255  77   0   0   0  43  25  23  16   4   3   3   4   5   7   7  18  46  60  22  86   0   0   0   0   0   0   0   0   0   0   0   0   0 
  0   0   0   0   0   0 105  57  11   8  23  67 105 130 136 128 105  85  36  15  16  31  93   0   0   0  31  11  12  43  91 109 127 134 133 112  75  27  10  11  35  95   0   0   0   0   0   0   0   0   0   0   0   0   0 
  0   0   0   0   0  42  43  18  24 134 222 253 255 255 255 255 255 255 242 170  29   7  17   0   0   0   5  37 191 250 255 255 255 255 255 255 255 233 156  36  13  44  78   0   0   0   0   0   0   0   0   0   0   0   0 
  0   0   0   0   0  54  14  15 179 255 255 255 255 255 255 255 255 255 255 226  53   2   1   0   0   0   4  40 200 255 255 255 255 255 255 255 255 255 255 218  33   8  30   0   0   0   0   0   0   0   0   0   0   0   0 
  0   0   0   0   0  60  17  15 131 200 218 226 224 224 224 214 202 176 104  43  14  32  76   0   0   0  41  10  23  79 144 194 212 224 226 224 226 220 204 161  31   5  14   0   0   0   0   0   0   0   0   0   0   0   0 
  0   0   0   0   0  39  23  12  15  18  24  28  28  28  28  23  17  15   7  10  39  73   0   0   0   0  75  40  15   9  13  16  22  27  28  28  28  25  19  14  10  19  97   0   0   0   0   0   0   0   0   0   0   0   0 
  0   0   0   0   0   0  22  52  15   4  13   9   9  10  10  16  18   2  23  45  39  69   0   0   0   0  64  40  92  46  10  16  22  10  10   9   9  12   8   5  37  19   0   0   0   0   0   0   0   0   0   0   0   0   0 

