P2
  50  64
 255
  0   0   0   0   0   0   0   0   0   0   0   0   0   0   0   0   0   0  39  84  49  42  24  22  26  50 104   0   0   0   0   0   0   0   0   0   0   0   0   0   0   0   0   0   0   0   0   0   0   0 
  0   0   0   0   0   0   0   0   0   0   0   0   0   0   0   0   0   0  42  32  22   7   5   4  10  34 117 100   0   0   0   0   0   0   0   0   0   0   0   0   0   0   0   0   0   0   0   0   0   0 
  0   0   0   0   0   0   0   0   0   0   0   0   0   0   0   0   0   0  31  12   5  49 119  96  12  15  75 108 128   0   0   0   0   0   0   0   0   0   0   0   0   0   0   0   0   0   0   0   0   0 
  0   0   0   0   0   0   0   0   0   0   0   0   0   0   0   0   0   0  15   9  32 144 161 159 106  14  12  75 139   0   0   0   0   0   0   0   0   0   0   0   0   0   0   0   0   0   0   0   0   0 
  0   0   0   0   0   0   0   0   0   0   0   0   0   0   0   0   0   0  30  14  21 126 156 155 161 106  14  15  63  31   0   0   0   0   0   0   0   0   0   0   0   0   0   0   0   0   0   0   0   0 
  0   0   0   0   0   0   0   0   0   0   0   0   0   0   0   0   0   0  62  26  16 109 158 154 155 158 101  14   7  31  43   0   0   0   0   0   0   0   0   0   0   0   0   0   0   0   0   0   0   0 
  0   0   0   0   0   0   0   0   0   0   0   0   0   0   0   0   0   0  71  13  14  93 154 154 154 156 158  94  12  12  41  67  74   0   0   0   0   0   0   0   0   0   0   0   0   0   0   0   0   0 
  0   0   0   0   0   0   0   0   0   0   0   0   0   0   0   0   0   0  69   1   7  81 157 156 154 156 161 162  76   7  20  57  80   0   0   0   0   0   0   0   0   0   0   0   0   0   0   0   0   0 
  0   0   0   0   0   0   0   0   0   0   0   0   0   0   0   0   0   0   0  24  18  63 155 156 154 157 157 162 155  55   6  33  69  32   0   0   0   0   0   0   0   0   0   0   0   0   0   0   0   0 
  0   0   0   0   0   0   0   0   0   0   0   0   0   0   0   0   0   0   0  10  10  59 155 156 154 157 157 158 165 143  21   8  21   0  57   0   0   0   0   0   0   0   0   0   0   0   0   0   0   0 
  0   0   0   0   0   0   0   0   0   0   0   0   0   0   0   0   0   0   0   1   3  54 150 156 154 157 157 158 160 168 123  14  10  41  61   0   0   0   0   0   0   0   0   0   0   0   0   0   0   0 
  0   0   0   0   0   0   0   0   0   0   0   0   0   0   0   0   0   0   0   6   6  48 148 156 154 157 157 158 160 163 170  86   5  29  37  42   0   0   0   0   0   0   0   0   0   0   0   0   0   0 
  0   0   0   0   0   0   0   0   0   0   0   0   0   0   0   0   0   0   0  19  12  45 146 157 154 157 157 158 160 160 168 153  39   7  39  88   0   0   0   0   0   0   0   0   0   0   0   0   0   0 
  0   0   0   0   0   0   0   0   0   0   0   0   0   0   0   0   0   0   0  20  11  44 147 157 154 157 157 158 160 160 164 171 118  13  23  80   0   0   0   0   0   0   0   0   0   0   0   0   0   0 
  0   0   0   0   0   0   0   0   0   0   0   0   0   0   0   0   0   0   0   5   5  48 150 157 154 157 157 158 160 160 161 170 163  61   5  36  85   0   0   0   0   0   0   0   0   0   0   0   0   0 
  0   0   0   0   0   0   0   0   0   0   0   0   0   0   0  54  54  53  50   1   3  51 148 161 158 156 157 158 160 160 161 164 172 123  19  17  81   0   0   0   0   0   0   0   0   0   0   0   0   0 
  0   0   0   0   0   0   0   0   0   0   0   0   0   0  54   6  69  66  59   5   4  34  70  78 113 152 159 158 160 160 161 162 172 163  59   7  42  50   0   0   0   0   0   0   0   0   0   0   0   0 
  0   0   0   0   0   0   0   0   0   0   0   0   0  46  65  23  26  29  33  15   4   5   7   6  11  52 135 161 160 160 161 165 167 174 121  18   9  54   0   0   0   0   0   0   0   0   0   0   0   0 
  0   0   0   0   0   0   0   0   0   0   0   0  78  52  30  13  12  15   4   1  42 141 175 143  49   8  34 140 163 160 161 166 166 173 160  43   8  38   0   0   0   0   0   0   0   0   0   0   0   0 
  0   0   0   0   0   0   0   0   0   0   0   0  83  31  10  47 177 118   7  59 231 255 255 255 244 100   8  52 161 163 162 165 166 168 175  96  12   8  40   0   0   0   0   0   0   0   0   0   0   0 
  0   0   0   0   0   0   0   0   0   0   0   0  45  12  46 217 228  55  33 231 255 255 255 255 255 228  49   9 130 168 162 165 166 168 178 144  23   7  42   0   0   0   0   0   0   0   0   0   0   0 
  0   0   0   0   0   0   0   0   0   0   0   0  17   7  50 186 191  25  31 136 224 255 255 255 255 251 104   7 106 168 161 165 166 166 175 165  40   8  25   0   0   0   0   0   0   0   0   0   0   0 
  0   0   0   0   0   0   0   0   0   0   0   0   6   3   3  70 177  22   1  16 151 255 255 255 255 253 119  10 101 168 161 166 166 171 171 175  76  12  12  96   0   0   0   0   0   0   0   0   0   0 
  0   0   0   0   0   0   0   0   0   0   0   0  17   7  34 163 220  33   4  88 206 255 255 255 255 244  85   7 116 169 162 164 166 168 169 180 108  13   6 104   0   0   0   0   0   0   0   0   0   0 
  0   0   0   0   0   0   0   0   0   0   0   0  29   5  55 224 246  74  10 158 253 255 255 255 255 182  24  18 149 166 162 166 168 165 164 182 133  16  26  86   0   0   0   0   0   0   0   0   0   0 
  0   0   0   0   0   0   0   0   0   0   0   0  31  22  11  69 206 184  21  14 146 229 244 230 163  40   9  98 162 160 163 172 150  87 139 183 149  19   8  27   0   0   0   0   0   0   0   0   0   0 
  0   0   0   0   0   0   0   0   0   0   0   0   0  78  39   6  31  66  24   1   7  46  63  48  14  11  79 156 162 163 169 140  39  29 149 182 155  22   7  22   0   0   0   0   0   0   0   0   0   0 
  0   0   0   0   0   0   0   0   0   0   0   0   0  77  88  33  13   8   6   9  14  16  13  15  31 109 154 161 167 158  93  24   1  45 164 179 151  24  22  66   0   0   0   0   0   0   0   0   0   0 
  0   0   0   0   0   0   0   0   0   0   0   0   0   0  84   1  84  51  18  11  78 142 133 141 156 166 166 149 100  35   8   3   1  68 171 174 151  24  22  66   0   0   0   0   0   0   0   0   0   0 
  0   0   0   0   0   0   0   0   0   0   0   0   0   0   0  77  71  45  18  10 101 162 162 163 151 120  75  24   5   6  24  18   5 109 176 176 155  22   7  22   0   0   0   0   0   0   0   0   0   0 
  0   0   0   0   0   0   0   0   0   0   0   0   0   0   0   0   0  30  17  14 104 128 101  65  29   6   4  11  23  47  58   6  29 154 174 177 149  19   8  27   0   0   0   0   0   0   0   0   0   0 
  0   0   0   0   0   0   0   0   0   0   0   0   0   0   0   0   0  44  26   7  15   8   3   3  10  21  38  57  69  69  29   4  80 169 169 181 133  14  21  78   0   0   0   0   0   0   0   0   0   0 
  0   0   0   0   0   0   0   0   0   0   0   0   0   0   0   0   0  69  56  30  11   6  30  47  58  67  69  68  69  43   5  35 152 173 169 180 113  11   3  93   0   0   0   0   0   0   0   0   0   0 
  0   0   0   0   0   0   0   0   0   0   0   0   0   0   0   0   0  71  61  50  21  13  60  71  67  67  69  70  41   5  19 119 171 167 169 175  79  10   7  87   0   0   0   0   0   0   0   0   0   0 
  0   0   0   0   0   0   0   0   0   0   0   0   0   0   0   0   0   0   0  27  14  19  64  70  70  72  58  25   6  20 108 167 167 166 175 165  45  10  24   0   0   0   0   0   0   0   0   0   0   0 
  0   0   0   0   0   0   0   0   0   0   0   0   0   0   0   0   0   0  59  19  12  27  69  63  50  22   8   5  35 126 169 166 166 166 175 149  23  12  57   0   0   0   0   0   0   0   0   0   0   0 
  0   0   0   0   0   0   0   0   0   0   0   0   0   0   0   0  63  51  74  31   8  14  14   7   5   8  25  80 150 166 163 164 166 168 174 113  16  12  61   0   0  77  53   5   3  25   0   0   0   0 
  0   0   0  33  26  36  36  31   0   0   0   0   0   0   0   0  64  51  14   4   2   7  14  28  49  99 144 164 163 160 161 166 166 173 167  60   8  26  60 104 103  78  53   5   3  25  38  58   0   0 
  0  60  48  33  26  35  33  21  13  21  23  43  78   0   0  41  28  22  14  45  71  94 121 143 160 161 161 158 160 160 161 166 166 174 145  28  12  69   0  40  97  61  38  71  73  43  36  49   4   3 
  0  60  45  29  27  26   4   2  22  27  22  46  90   0   0  41  16  10  42 143 154 153 156 157 155 157 157 158 160 160 161 164 168 171  95  12  23  87  51  32  27   5  29 198 237 125  12  10   8   2 
 62  62  38   8  47 147  53 109 188 130  33  39  61   0   0  42  32   7  70 153 151 151 153 154 154 157 157 158 160 160 163 164 173 156  41   7  51  61  59  29  49  55 156 253 250  65  25 136  86   3 
 67  37   7   6  54 224 237 248 255 250 144  21   9  39  46  36  28  10  94 152 151 151 153 154 154 157 157 158 160 160 161 166 170 100  10  12  55  53  35  22 116 237 253 255 250 198 208 226  96  19 
 47  40  18  54 220 255 255 255 255 255 175  25   8  43  47  11  14  18 117 152 151 151 153 154 154 157 157 158 160 160 161 169 148  33   6  29   0  36   5  30 214 255 255 255 255 255 255 156  16  17 
 46  57 189 242 255 255 255 255 255 255 239 103  13  22  39 255  11  36 137 151 151 151 153 154 154 157 157 158 160 160 164 169  83   5  34  26  66  45  12  53 224 255 255 255 255 255 250 130   4  28 
 49  49  89 116 206 255 255 255 255 255 255 229  32  11  38  44   9  59 147 151 151 151 153 154 154 157 157 158 160 160 169 130  15  13  61  69  67  47   9  53 214 255 255 255 255 255 252 144  10  28 
 26  25  14  46 192 255 255 255 255 255 226  69  16  33  46  28   8  85 152 147 151 151 153 154 154 157 157 158 160 165 155  34   7  30  86  65  59  40  13  40 191 255 255 255 255 255 231  98  17  29 
 39   7  31 160 244 255 253 255 255 248 161  16   7  37 255   8  17 112 150 147 151 151 153 154 154 157 157 158 163 161  71   8  30  50  42   0  55  41  21  49 188 253 255 255 255 221 121  13   5  33 
  0  21  34 123 240 194 166 231 233 124  20  19  35  54  73   6  37 137 149 147 151 151 153 154 154 157 157 161 165  94   9  16  43  66   0  59  97  76  32   4  31 165 237 255 253 120  10   7  18  33 
  0  27  27  50  86  17   7  75  52   8   7  30  49  80  51   8  57 145 145 147 151 151 153 154 155 157 157 159 102  10   5  21  43  59  43  82  62  34   7   2  15  49  77 208 239 132  21  22  33  32 
  0  24  78  48  29  36  36  19   2   2  29  86  74  71  25   5  81 148 144 147 151 151 153 154 156 156 159 103  16   2   4  23  35  81  87  44  24   3   6  24  27  19  22  52  88  70  33  25  33  32 
  0   0  81  48  28  37  58  33  26   5  14  59  43  18   1  17 115 147 144 147 151 151 153 154 159 159  99  15  18  52   6   8  41  90  24  11   2  12  43  60 153  55  23  21  12  26  59   0   0   0 
  0   0   0   0   0   0  57 254  49  10   6  28   9   1   0  36 137 145 146 148 151 151 153 159 153  86  10   4  56 101  14   3  29  46   6   2  10  51  88  59  83  75  75  94  28  27  58   0   0   0 
  0   0   0   0   0   0   0  64  23  18   3   2   6  13   3  60 146 145 147 151 151 151 158 142  57   8   8   6   3  26  36   5   4   3   6  25  39  47  80   0   0  66  70  86  26  27   0   0   0   0 
  0   0   0   0   0   0   0   0  58  42   7   5  33  17  12  94 146 145 145 147 154 154 112  21   8  20  32  15   1   9  41  17   1  10  45  51  33   0   0   0   0   0   0   0   0   0   0   0   0   0 
  0   0   0   0   0  67  60  27  84  67  41  13   6   1  19 117 149 146 150 152 127  56   9   9  41  61  50  26  13   2  14  48  31  31  74  43  67   0   0   0   0   0   0   0   0   0   0   0   0   0 
  0   0  69  58  25  88  73  33  56  57  14   2   6  13   4  25  92 127 104  54  12   8  23  30  74   0  43  31  50  19   2  19  42  13  32  74  89  26  59  69   0   0   0   0   0   0   0   0   0   0 
  0  50 105  73  28  42  40  18  17  13   3   7  32  81  48   8   3  16   5   4  15  63  91  84  62  53 128  59  14  13   6   7  13   6  20  40  41  30  74 112  46   0   0   0   0   0   0   0   0   0 
 17 110  42  31  17   7   6   8   9   9   8   7   5   8  30  52  27   9  31  52  17  78 125  37   0  64  26  24   8   4   7   8   9   9   8   6   7  17  31  41  99  28   0   0   0   0   0   0   0   0 
  4  17  11   8  37 107 159 193 216 216 202 176 133  51  13   9  24  30  93  58   0   0   0 146  31  21  10  13  47 133 177 204 216 216 192 157 105  35   7  11  22  21  51   0   0   0   0   0   0   0 
 36   5  31 153 244 255 255 255 255 255 255 255 255 252 194  59   5  24  99   0   0   0   0 100  25   6  58 198 253 255 255 255 255 255 255 255 255 242 148  29   7  35  59   0   0   0   0   0   0   0 
  9  25 196 255 255 255 255 255 255 255 255 255 255 255 255 237  78   7  33   0   0   0   0  17   6  79 235 255 255 255 255 255 255 255 255 255 255 255 255 190  22   8  10   0   0   0   0   0   0   0 
  3  36 196 250 255 255 255 255 255 255 255 255 255 255 255 231  93   2  15   0   0   0   0   6   1  97 233 255 255 255 255 255 255 255 255 255 255 255 248 190  34   2   1   0   0   0   0   0   0   0 
 36  14  12  42  72  89  94  93  93  93  93  93  94  80  55  14   6  18  24   0   0   0   0  22  17   6  16  56  78  93  95  93  93  93  93  94  89  70  40  11  13  36  42   0   0   0   0   0   0   0 
 77  61  19  13   4   2   2   2   2   2   2   2   2   1  10  16  27  37  20   0   0   0   0  10  39  32  15   8   1   2   2   2   2   2   2   2   2   4  15  21  52  68  75   0   0   0   0   0   0   0 

